<svg width="267" height="191" viewBox="0 0 267 191" fill="none" xmlns="http://www.w3.org/2000/svg">
<path d="M35.578 1.02859C35.0413 0.0631734 33.8236 -0.284375 32.8582 0.25232C31.8928 0.789016 31.5453 2.00672 32.0819 2.97214L33.83 2.00036L35.578 1.02859ZM53.9058 64.2544L55.8999 64.1001L55.8998 64.0994L53.9058 64.2544ZM92.6084 152.796L92.8257 150.807L92.8257 150.807L92.6084 152.796ZM194.38 88.5205L194.814 86.5681L194.813 86.5679L194.38 88.5205ZM230.947 159.261C230.907 160.365 231.768 161.293 232.872 161.334C233.976 161.374 234.904 160.513 234.945 159.409L232.946 159.335L230.947 159.261ZM214.084 138.577C213.203 137.911 211.949 138.084 211.283 138.965C210.616 139.846 210.79 141.101 211.671 141.767L212.878 140.172L214.084 138.577ZM250.349 133.781C250.832 132.788 250.419 131.591 249.425 131.108C248.432 130.625 247.235 131.039 246.752 132.032L248.551 132.907L250.349 133.781ZM33.83 2.00036C32.0819 2.97214 32.0818 2.97196 32.0818 2.97191C32.0819 2.97205 32.0819 2.97212 32.0821 2.9724C32.0824 2.97297 32.083 2.97403 32.0838 2.97556C32.0855 2.97864 32.0883 2.98363 32.0921 2.99054C32.0998 3.00435 32.1116 3.0258 32.1275 3.05475C32.1592 3.11266 32.2073 3.20059 32.2706 3.31754C32.3971 3.55143 32.5847 3.90133 32.8252 4.3591C33.3063 5.27471 33.999 6.62146 34.8389 8.33437C36.5192 11.7612 38.786 16.6481 41.126 22.4761C45.8171 34.1596 50.7534 49.5065 51.9118 64.4094L53.9058 64.2544L55.8998 64.0994C54.6959 48.6116 49.5942 32.8315 44.838 20.9857C42.4543 15.049 40.1452 10.0706 38.4304 6.57335C37.5727 4.82422 36.8631 3.44422 36.3662 2.4986C36.1178 2.02575 35.9225 1.6614 35.7884 1.41371C35.7214 1.28986 35.6697 1.19517 35.6343 1.13064C35.6166 1.09838 35.603 1.07366 35.5935 1.05661C35.5888 1.04808 35.5852 1.04148 35.5826 1.0368C35.5813 1.03446 35.5803 1.03261 35.5795 1.03124C35.5791 1.03056 35.5788 1.02989 35.5786 1.02955C35.5783 1.02901 35.578 1.02859 33.83 2.00036ZM53.9058 64.2544L51.9118 64.4086C53.0901 79.6415 55.621 101.186 61.4983 119.362C64.436 128.447 68.2488 136.818 73.2415 143.152C78.253 149.511 84.5483 153.927 92.3911 154.784L92.6084 152.796L92.8257 150.807C86.3522 150.1 80.9454 146.465 76.383 140.676C71.802 134.864 68.1694 126.992 65.3043 118.132C59.5762 100.417 57.0721 79.2548 55.8999 64.1001L53.9058 64.2544ZM92.6084 152.796L92.3911 154.784C124.592 158.303 142.716 139.708 156.514 121.79C163.502 112.716 169.218 104.071 175.271 97.9601C181.241 91.9332 187.009 88.9341 193.947 90.473L194.38 88.5205L194.813 86.5679C185.899 84.5906 178.796 88.7175 172.429 95.1452C166.146 101.489 160.062 110.627 153.345 119.35C139.732 137.027 122.821 154.086 92.8257 150.807L92.6084 152.796ZM194.38 88.5205L193.946 90.4728C208.909 93.7985 218.358 105.309 224.007 119.048C229.656 132.791 231.348 148.437 230.947 159.261L232.946 159.335L234.945 159.409C235.361 148.147 233.619 131.909 227.706 117.527C221.793 103.142 211.551 90.2882 194.814 86.5681L194.38 88.5205ZM212.878 140.172L211.671 141.767C211.599 141.712 211.643 141.738 211.878 141.998C212.072 142.213 212.327 142.511 212.642 142.889C213.271 143.643 214.09 144.66 215.046 145.857C216.95 148.239 219.376 151.305 221.793 154.251C224.202 157.188 226.65 160.065 228.606 162.063C229.566 163.043 230.499 163.908 231.299 164.451C231.671 164.704 232.208 165.025 232.824 165.146C233.155 165.211 233.631 165.243 234.146 165.061C234.703 164.865 235.125 164.482 235.389 164.03L233.663 163.02L231.937 162.009C232.112 161.712 232.411 161.431 232.817 161.288C233.18 161.16 233.474 161.197 233.596 161.221C233.792 161.259 233.8 161.314 233.546 161.142C233.095 160.836 232.394 160.214 231.465 159.265C229.642 157.402 227.289 154.644 224.885 151.714C222.49 148.794 220.092 145.763 218.171 143.36C217.215 142.164 216.373 141.117 215.715 140.328C215.387 139.934 215.094 139.591 214.849 139.319C214.644 139.093 214.36 138.786 214.084 138.577L212.878 140.172ZM233.663 163.02L235.389 164.03C236.16 162.713 239.932 155.078 243.444 147.919C245.216 144.307 246.942 140.773 248.225 138.142C248.867 136.826 249.398 135.736 249.768 134.975C249.954 134.594 250.099 134.296 250.198 134.093C250.247 133.991 250.285 133.913 250.31 133.861C250.323 133.835 250.333 133.815 250.339 133.801C250.343 133.795 250.345 133.79 250.347 133.786C250.348 133.785 250.348 133.783 250.349 133.783C250.349 133.782 250.349 133.782 250.349 133.782C250.349 133.781 250.349 133.781 248.551 132.907C246.752 132.032 246.752 132.032 246.752 132.032C246.752 132.033 246.752 132.033 246.751 132.033C246.751 132.034 246.75 132.035 246.75 132.037C246.748 132.04 246.745 132.045 246.742 132.052C246.736 132.065 246.726 132.085 246.713 132.111C246.688 132.164 246.65 132.241 246.601 132.343C246.502 132.546 246.357 132.844 246.172 133.224C245.802 133.984 245.271 135.073 244.63 136.388C243.347 139.018 241.623 142.549 239.853 146.157C236.282 153.438 232.61 160.86 231.937 162.009L233.663 163.02Z" fill="#205295"/>
</svg>
