<svg width="267" height="192" viewBox="0 0 267 192" fill="none" xmlns="http://www.w3.org/2000/svg">
<path d="M35.578 1.77298C35.0413 0.80756 33.8236 0.460012 32.8582 0.996707C31.8928 1.5334 31.5452 2.75111 32.0819 3.71652L35.578 1.77298ZM53.9058 64.9988L55.8998 64.8445L55.8998 64.8438L53.9058 64.9988ZM92.6084 153.54L92.8257 151.552L92.8256 151.552L92.6084 153.54ZM194.38 89.2648L194.814 87.3125L194.813 87.3123L194.38 89.2648ZM230.947 160.006C230.907 161.109 231.768 162.037 232.872 162.078C233.976 162.119 234.904 161.257 234.945 160.153L230.947 160.006ZM214.084 139.321C213.203 138.655 211.949 138.829 211.283 139.71C210.616 140.591 210.79 141.845 211.671 142.511L214.084 139.321ZM250.349 134.526C250.832 133.532 250.419 132.335 249.425 131.852C248.432 131.369 247.235 131.783 246.752 132.776L250.349 134.526ZM33.83 2.74475C32.0819 3.71652 32.0818 3.71635 32.0818 3.71629C32.0819 3.71644 32.0819 3.7165 32.0821 3.71679C32.0824 3.71736 32.083 3.71841 32.0838 3.71995C32.0855 3.72302 32.0883 3.72802 32.0921 3.73493C32.0997 3.74874 32.1115 3.77018 32.1274 3.79914C32.1592 3.85705 32.2072 3.94498 32.2705 4.06192C32.3971 4.29582 32.5847 4.64571 32.8252 5.10349C33.3063 6.0191 33.999 7.36585 34.8389 9.07876C36.5191 12.5056 38.786 17.3925 41.126 23.2204C45.8171 34.904 50.7533 50.2509 51.9118 65.1538L55.8998 64.8438C54.6959 49.356 49.5942 33.5758 44.838 21.73C42.4543 15.7934 40.1452 10.815 38.4303 7.31774C37.5727 5.5686 36.863 4.18861 36.3662 3.24298C36.1177 2.77014 35.9224 2.40579 35.7884 2.1581C35.7214 2.03425 35.6697 1.93955 35.6343 1.87503C35.6166 1.84277 35.6029 1.81805 35.5935 1.801C35.5888 1.79247 35.5851 1.78586 35.5826 1.78119C35.5813 1.77885 35.5802 1.777 35.5795 1.77563C35.5791 1.77494 35.5787 1.77428 35.5785 1.77394C35.5782 1.7734 35.578 1.77298 33.83 2.74475ZM51.9117 65.153C53.0901 80.3859 55.6209 101.93 61.4983 120.107C64.436 129.192 68.2488 137.562 73.2415 143.897C78.2529 150.255 84.5483 154.671 92.3911 155.528L92.8256 151.552C86.3521 150.844 80.9453 147.209 76.383 141.421C71.802 135.608 68.1694 127.737 65.3043 118.876C59.5762 101.161 57.0721 79.9992 55.8998 64.8445L51.9117 65.153ZM92.3911 155.528C124.592 159.048 142.716 140.453 156.514 122.535C163.502 113.46 169.218 104.815 175.271 98.7045C181.24 92.6776 187.009 89.6785 193.947 91.2174L194.813 87.3123C185.899 85.335 178.796 89.4619 172.429 95.8896C166.146 102.233 160.062 111.371 153.345 120.094C139.732 137.772 122.821 154.83 92.8257 151.552L92.3911 155.528ZM193.946 91.2172C208.909 94.5428 218.358 106.053 224.007 119.793C229.656 133.535 231.347 149.182 230.947 160.006L234.945 160.153C235.361 148.892 233.619 132.654 227.706 118.272C221.793 103.887 211.551 91.0326 194.814 87.3125L193.946 91.2172ZM211.671 142.511C211.599 142.457 211.643 142.482 211.878 142.742C212.072 142.957 212.327 143.255 212.642 143.633C213.271 144.387 214.09 145.405 215.046 146.601C216.95 148.983 219.376 152.049 221.793 154.995C224.202 157.932 226.65 160.809 228.606 162.807C229.566 163.788 230.498 164.652 231.299 165.196C231.671 165.448 232.208 165.769 232.824 165.89C233.155 165.955 233.631 165.987 234.146 165.806C234.703 165.609 235.125 165.226 235.389 164.774L231.937 162.754C232.111 162.456 232.411 162.176 232.817 162.033C233.18 161.905 233.474 161.941 233.596 161.965C233.792 162.004 233.8 162.059 233.546 161.886C233.095 161.58 232.394 160.958 231.465 160.009C229.642 158.147 227.289 155.388 224.885 152.458C222.49 149.538 220.092 146.507 218.171 144.104C217.215 142.908 216.373 141.861 215.715 141.072C215.387 140.679 215.094 140.335 214.849 140.064C214.644 139.837 214.36 139.53 214.084 139.321L211.671 142.511ZM235.389 164.774C236.16 163.457 239.932 155.823 243.444 148.663C245.216 145.052 246.942 141.517 248.225 138.886C248.867 137.57 249.398 136.48 249.768 135.719C249.954 135.339 250.099 135.04 250.198 134.837C250.247 134.736 250.285 134.658 250.31 134.605C250.323 134.579 250.333 134.559 250.339 134.546C250.343 134.539 250.345 134.534 250.347 134.531C250.348 134.529 250.348 134.528 250.349 134.527C250.349 134.527 250.349 134.526 250.349 134.526C250.349 134.526 250.349 134.526 248.551 133.651C246.752 132.776 246.752 132.777 246.752 132.777C246.752 132.777 246.752 132.777 246.751 132.778C246.751 132.779 246.75 132.78 246.749 132.781C246.748 132.785 246.745 132.79 246.742 132.796C246.736 132.81 246.726 132.829 246.713 132.856C246.688 132.908 246.65 132.986 246.601 133.087C246.502 133.29 246.357 133.588 246.172 133.968C245.802 134.729 245.271 135.818 244.63 137.133C243.347 139.762 241.623 143.294 239.853 146.902C236.282 154.182 232.61 161.604 231.937 162.754L235.389 164.774Z" fill="#B692F6"/>
</svg>
